<mxfile host="app.diagrams.net" agent="Mozilla/5.0 (Windows NT 10.0; Win64; x64) AppleWebKit/537.36 (KHTML, like Gecko) Chrome/136.0.0.0 Safari/537.36 Edg/136.0.0.0" version="27.1.1">
  <diagram name="Page-1" id="E9HyNXkZnENy5sJMcOrU">
    <mxGraphModel dx="747" dy="554" grid="1" gridSize="10" guides="1" tooltips="1" connect="1" arrows="1" fold="1" page="1" pageScale="1" pageWidth="850" pageHeight="1100" math="0" shadow="0">
      <root>
        <mxCell id="0" />
        <mxCell id="1" parent="0" />
        <mxCell id="ostssT6Kd12O9wU0WoqN-19" value="LLM Orchestration" style="rounded=0;whiteSpace=wrap;html=1;align=center;" vertex="1" parent="1">
          <mxGeometry x="150" y="340" width="120" height="40" as="geometry" />
        </mxCell>
        <mxCell id="ostssT6Kd12O9wU0WoqN-20" value="" style="rounded=0;whiteSpace=wrap;html=1;" vertex="1" parent="1">
          <mxGeometry x="150" y="378" width="120" height="92" as="geometry" />
        </mxCell>
        <mxCell id="ostssT6Kd12O9wU0WoqN-12" value="" style="group" vertex="1" connectable="0" parent="1">
          <mxGeometry x="570" y="120" width="128" height="170" as="geometry" />
        </mxCell>
        <mxCell id="ostssT6Kd12O9wU0WoqN-6" value="" style="rounded=0;whiteSpace=wrap;html=1;" vertex="1" parent="ostssT6Kd12O9wU0WoqN-12">
          <mxGeometry width="128" height="170" as="geometry" />
        </mxCell>
        <mxCell id="ostssT6Kd12O9wU0WoqN-1" value="" style="shape=image;html=1;verticalAlign=top;verticalLabelPosition=bottom;labelBackgroundColor=#ffffff;imageAspect=0;aspect=fixed;image=https://cdn2.iconfinder.com/data/icons/electronic-13/480/3-electronic-arduino-chipset-icon-2-128.png" vertex="1" parent="ostssT6Kd12O9wU0WoqN-12">
          <mxGeometry y="34" width="128" height="128" as="geometry" />
        </mxCell>
        <mxCell id="ostssT6Kd12O9wU0WoqN-7" value="Microcontroller" style="text;html=1;align=center;verticalAlign=middle;whiteSpace=wrap;rounded=0;" vertex="1" parent="ostssT6Kd12O9wU0WoqN-12">
          <mxGeometry x="26" y="8" width="76" height="30" as="geometry" />
        </mxCell>
        <mxCell id="ostssT6Kd12O9wU0WoqN-17" style="edgeStyle=orthogonalEdgeStyle;rounded=0;orthogonalLoop=1;jettySize=auto;html=1;exitX=0;exitY=0.5;exitDx=0;exitDy=0;entryX=1;entryY=0.5;entryDx=0;entryDy=0;startArrow=classic;startFill=1;strokeWidth=4;" edge="1" parent="1" source="ostssT6Kd12O9wU0WoqN-13" target="ostssT6Kd12O9wU0WoqN-15">
          <mxGeometry relative="1" as="geometry" />
        </mxCell>
        <mxCell id="ostssT6Kd12O9wU0WoqN-13" value="Flask API" style="rounded=0;whiteSpace=wrap;html=1;" vertex="1" parent="1">
          <mxGeometry x="350" y="188" width="120" height="60" as="geometry" />
        </mxCell>
        <mxCell id="ostssT6Kd12O9wU0WoqN-14" value="Front-End" style="rounded=0;whiteSpace=wrap;html=1;align=center;" vertex="1" parent="1">
          <mxGeometry x="150" y="120" width="120" height="40" as="geometry" />
        </mxCell>
        <mxCell id="ostssT6Kd12O9wU0WoqN-22" style="edgeStyle=orthogonalEdgeStyle;rounded=0;orthogonalLoop=1;jettySize=auto;html=1;exitX=0.5;exitY=1;exitDx=0;exitDy=0;entryX=0.5;entryY=0;entryDx=0;entryDy=0;strokeWidth=5;" edge="1" parent="1" source="ostssT6Kd12O9wU0WoqN-15" target="ostssT6Kd12O9wU0WoqN-19">
          <mxGeometry relative="1" as="geometry" />
        </mxCell>
        <mxCell id="ostssT6Kd12O9wU0WoqN-15" value="" style="rounded=0;whiteSpace=wrap;html=1;" vertex="1" parent="1">
          <mxGeometry x="150" y="158" width="120" height="120" as="geometry" />
        </mxCell>
        <mxCell id="ostssT6Kd12O9wU0WoqN-16" style="edgeStyle=orthogonalEdgeStyle;rounded=0;orthogonalLoop=1;jettySize=auto;html=1;exitX=0;exitY=0.5;exitDx=0;exitDy=0;startArrow=classic;startFill=1;strokeWidth=4;" edge="1" parent="1" source="ostssT6Kd12O9wU0WoqN-1" target="ostssT6Kd12O9wU0WoqN-13">
          <mxGeometry relative="1" as="geometry" />
        </mxCell>
        <mxCell id="ostssT6Kd12O9wU0WoqN-18" value="" style="image;aspect=fixed;html=1;points=[];align=center;fontSize=12;image=img/lib/azure2/ai_machine_learning/Azure_OpenAI.svg;" vertex="1" parent="1">
          <mxGeometry x="176" y="390" width="68" height="68" as="geometry" />
        </mxCell>
        <mxCell id="ostssT6Kd12O9wU0WoqN-25" style="edgeStyle=orthogonalEdgeStyle;rounded=0;orthogonalLoop=1;jettySize=auto;html=1;exitX=0;exitY=0.5;exitDx=0;exitDy=0;entryX=1;entryY=0.5;entryDx=0;entryDy=0;strokeWidth=4;" edge="1" parent="1" source="ostssT6Kd12O9wU0WoqN-23" target="ostssT6Kd12O9wU0WoqN-20">
          <mxGeometry relative="1" as="geometry" />
        </mxCell>
        <mxCell id="ostssT6Kd12O9wU0WoqN-23" value="Sensor Simulation Engine" style="rounded=0;whiteSpace=wrap;html=1;" vertex="1" parent="1">
          <mxGeometry x="330" y="394" width="120" height="60" as="geometry" />
        </mxCell>
        <mxCell id="ostssT6Kd12O9wU0WoqN-26" value="Sensor Input" style="text;html=1;align=center;verticalAlign=middle;whiteSpace=wrap;rounded=0;" vertex="1" parent="1">
          <mxGeometry x="490" y="170" width="60" height="30" as="geometry" />
        </mxCell>
        <mxCell id="ostssT6Kd12O9wU0WoqN-27" value="Agent Actuation" style="text;html=1;align=center;verticalAlign=middle;whiteSpace=wrap;rounded=0;" vertex="1" parent="1">
          <mxGeometry x="490" y="240" width="60" height="30" as="geometry" />
        </mxCell>
        <mxCell id="ostssT6Kd12O9wU0WoqN-28" value="Sensor Input" style="text;html=1;align=center;verticalAlign=middle;whiteSpace=wrap;rounded=0;" vertex="1" parent="1">
          <mxGeometry x="280" y="170" width="60" height="30" as="geometry" />
        </mxCell>
        <mxCell id="ostssT6Kd12O9wU0WoqN-29" value="Agent Actuation" style="text;html=1;align=center;verticalAlign=middle;whiteSpace=wrap;rounded=0;" vertex="1" parent="1">
          <mxGeometry x="280" y="240" width="60" height="30" as="geometry" />
        </mxCell>
      </root>
    </mxGraphModel>
  </diagram>
</mxfile>
